# xmcd
#
# Track frame offsets: 
#        150
#        12807
#        33435
#        53030
#        69610
#        89110
#        108717
#        129000
#        147015
#        163965
#
# Disc length: 2415 seconds
#
# Revision: 0
# Processed by: cddbd v1.4PL0 Copyright (c) Steve Scherf et al.
# Submitted via: ExactAudioCopy v0.90b2
#
DISCID=87096d0a
DTITLE=John Mayall - Notice To Appear
DYEAR=1975
DGENRE=Blues
TTITLE0=Lil Boogie In the Afternoon
TTITLE1=Mess of Love
TTITLE2=That Love
TTITLE3=The Boy Most Likely To Succeed
TTITLE4=Who's Next, Who's Now
TTITLE5=Hale To the Man Who Lives Alone
TTITLE6=There will Be a Way
TTITLE7=Just Knowing You Is a Pleasure
TTITLE8=A Hard Day's Night
TTITLE9=Olt Time Blues
EXTD=
EXTT0=
EXTT1=
EXTT2=
EXTT3=
EXTT4=
EXTT5=
EXTT6=
EXTT7=
EXTT8=
EXTT9=
PLAYORDER=
